<svg id="visual" viewBox="0 0 1920 1080" width="1920" height="1080" xmlns="http://www.w3.org/2000/svg" xmlns:xlink="http://www.w3.org/1999/xlink" version="1.1"><rect x="0" y="0" width="1920" height="1080" fill="#040622"></rect><path d="M0 890L24.7 885.5C49.3 881 98.7 872 147.8 864.8C197 857.7 246 852.3 295.2 856C344.3 859.7 393.7 872.3 443 875.3C492.3 878.3 541.7 871.7 590.8 875.8C640 880 689 895 738.2 904.5C787.3 914 836.7 918 886 912.2C935.3 906.3 984.7 890.7 1034 891.5C1083.3 892.3 1132.7 909.7 1181.8 909C1231 908.3 1280 889.7 1329.2 878.2C1378.3 866.7 1427.7 862.3 1477 853.3C1526.3 844.3 1575.7 830.7 1624.8 834.7C1674 838.7 1723 860.3 1772.2 861.3C1821.3 862.3 1870.7 842.7 1895.3 832.8L1920 823L1920 1081L1895.3 1081C1870.7 1081 1821.3 1081 1772.2 1081C1723 1081 1674 1081 1624.8 1081C1575.7 1081 1526.3 1081 1477 1081C1427.7 1081 1378.3 1081 1329.2 1081C1280 1081 1231 1081 1181.8 1081C1132.7 1081 1083.3 1081 1034 1081C984.7 1081 935.3 1081 886 1081C836.7 1081 787.3 1081 738.2 1081C689 1081 640 1081 590.8 1081C541.7 1081 492.3 1081 443 1081C393.7 1081 344.3 1081 295.2 1081C246 1081 197 1081 147.8 1081C98.7 1081 49.3 1081 24.7 1081L0 1081Z" fill="#c62368"></path><path d="M0 971L24.7 973C49.3 975 98.7 979 147.8 976.2C197 973.3 246 963.7 295.2 961.7C344.3 959.7 393.7 965.3 443 962.7C492.3 960 541.7 949 590.8 942C640 935 689 932 738.2 930.2C787.3 928.3 836.7 927.7 886 933.5C935.3 939.3 984.7 951.7 1034 949.3C1083.3 947 1132.7 930 1181.8 926.8C1231 923.7 1280 934.3 1329.2 939.7C1378.3 945 1427.7 945 1477 949.5C1526.3 954 1575.7 963 1624.8 960.2C1674 957.3 1723 942.7 1772.2 939.5C1821.3 936.3 1870.7 944.7 1895.3 948.8L1920 953L1920 1081L1895.3 1081C1870.7 1081 1821.3 1081 1772.2 1081C1723 1081 1674 1081 1624.8 1081C1575.7 1081 1526.3 1081 1477 1081C1427.7 1081 1378.3 1081 1329.2 1081C1280 1081 1231 1081 1181.8 1081C1132.7 1081 1083.3 1081 1034 1081C984.7 1081 935.3 1081 886 1081C836.7 1081 787.3 1081 738.2 1081C689 1081 640 1081 590.8 1081C541.7 1081 492.3 1081 443 1081C393.7 1081 344.3 1081 295.2 1081C246 1081 197 1081 147.8 1081C98.7 1081 49.3 1081 24.7 1081L0 1081Z" fill="#e34c67"></path><path d="M0 970L24.7 976.8C49.3 983.7 98.7 997.3 147.8 1004.2C197 1011 246 1011 295.2 1009.2C344.3 1007.3 393.7 1003.7 443 1002.7C492.3 1001.7 541.7 1003.3 590.8 1001C640 998.7 689 992.3 738.2 988.5C787.3 984.7 836.7 983.3 886 990.7C935.3 998 984.7 1014 1034 1022.8C1083.3 1031.7 1132.7 1033.3 1181.8 1025.3C1231 1017.3 1280 999.7 1329.2 998.7C1378.3 997.7 1427.7 1013.3 1477 1009.3C1526.3 1005.3 1575.7 981.7 1624.8 980.2C1674 978.7 1723 999.3 1772.2 1012.3C1821.3 1025.3 1870.7 1030.7 1895.3 1033.3L1920 1036L1920 1081L1895.3 1081C1870.7 1081 1821.3 1081 1772.2 1081C1723 1081 1674 1081 1624.8 1081C1575.7 1081 1526.3 1081 1477 1081C1427.7 1081 1378.3 1081 1329.2 1081C1280 1081 1231 1081 1181.8 1081C1132.7 1081 1083.3 1081 1034 1081C984.7 1081 935.3 1081 886 1081C836.7 1081 787.3 1081 738.2 1081C689 1081 640 1081 590.8 1081C541.7 1081 492.3 1081 443 1081C393.7 1081 344.3 1081 295.2 1081C246 1081 197 1081 147.8 1081C98.7 1081 49.3 1081 24.7 1081L0 1081Z" fill="#fa7268"></path></svg>